<?xml version="1.0" standalone="no"?>
<!DOCTYPE svg PUBLIC "-//W3C//DTD SVG 20010904//EN"
 "http://www.w3.org/TR/2001/REC-SVG-20010904/DTD/svg10.dtd">
<svg version="1.0" xmlns="http://www.w3.org/2000/svg"
 width="800.000000pt" height="584.000000pt" viewBox="0 0 800.000000 584.000000"
 preserveAspectRatio="xMidYMid meet">
<metadata>
Created by potrace 1.16, written by Peter Selinger 2001-2019
</metadata>
<g transform="translate(0.000000,584.000000) scale(0.100000,-0.100000)"
fill="#000000" stroke="none">
<path d="M2752 5748 c-35 -18 -75 -42 -89 -54 l-27 -21 65 -31 c35 -17 76 -35
92 -41 l27 -11 0 95 c0 52 -1 95 -3 95 -2 0 -31 -15 -65 -32z"/>
<path d="M4652 4988 l3 -253 78 -3 77 -3 0 71 0 70 -40 0 c-28 0 -40 4 -40 14
0 14 54 66 68 66 4 0 12 10 17 22 6 11 19 27 30 34 19 13 27 8 93 -57 40 -40
72 -73 72 -75 0 -2 -20 -4 -45 -4 l-45 0 0 -70 0 -70 173 0 c121 0 177 4 185
12 9 9 12 79 12 255 l0 243 -320 0 -320 0 2 -252z"/>
<path d="M1722 4958 c-7 -7 -12 -20 -12 -30 0 -10 -4 -18 -8 -18 -4 0 -14 -17
-21 -37 -7 -21 -29 -71 -47 -112 -19 -41 -31 -78 -27 -82 5 -5 65 -10 133 -11
l125 -3 0 -80 0 -80 -62 -3 -63 -3 0 -69 0 -70 160 0 160 0 0 70 0 69 -62 3
-63 3 0 80 0 80 132 5 c127 5 162 12 135 29 -14 9 -92 183 -92 206 0 8 -10 26
-22 40 -21 25 -23 25 -188 25 -116 0 -170 -4 -178 -12z"/>
<path d="M6278 3872 c-42 -15 -82 -32 -87 -37 -7 -7 -3 -40 14 -104 14 -51 28
-97 31 -102 3 -5 30 -6 60 -3 l54 7 0 -192 0 -191 205 0 205 0 0 191 0 192 56
-7 c55 -6 56 -6 67 24 6 16 15 30 19 30 4 0 8 17 8 38 0 20 4 53 10 72 7 25 7
37 -3 46 -19 18 -168 64 -208 64 -34 0 -37 -3 -43 -33 -7 -39 -49 -82 -88 -91
-55 -13 -123 34 -134 91 -6 31 -8 33 -48 32 -22 0 -76 -13 -118 -27z"/>
<path d="M842 3628 c-17 -17 -17 -709 0 -726 17 -17 479 -17 496 0 17 17 17
709 0 726 -17 17 -479 17 -496 0z m433 -288 l0 -215 -182 -3 -183 -2 0 220 0
220 183 -2 182 -3 0 -215z"/>
<path d="M1951 3334 c-19 -8 -47 -28 -62 -44 -63 -65 -59 18 -59 -1361 l0
-1259 2025 0 2025 0 -2 1268 -3 1269 -30 48 c-17 27 -46 58 -65 70 -35 20 -40
20 -1915 22 -1644 2 -1884 0 -1914 -13z m3759 -1349 l0 -1145 -1845 0 -1845 0
0 1145 0 1145 1845 0 1845 0 0 -1145z"/>
<path d="M7710 2625 c0 -29 41 -165 50 -165 3 0 37 31 76 69 l69 69 -80 22
c-44 13 -88 25 -97 27 -14 4 -18 -1 -18 -22z"/>
</g>
</svg>
